<svg width="32" height="32" viewBox="0 0 32 32" fill="none" xmlns="http://www.w3.org/2000/svg">
<path id="Sun" fill-rule="evenodd" clip-rule="evenodd" d="M16 0C16.5891 0 17.0667 0.477564 17.0667 1.06667V5.33333C17.0667 5.92243 16.5891 6.4 16 6.4C15.4109 6.4 14.9333 5.92243 14.9333 5.33333V1.06667C14.9333 0.477564 15.4109 0 16 0ZM4.68629 4.68629C5.10285 4.26974 5.77822 4.26974 6.1948 4.68629L9.21178 7.70327C9.62833 8.11983 9.62833 8.79522 9.21178 9.21178C8.79522 9.62833 8.11983 9.62833 7.70327 9.21178L4.68629 6.1948C4.26974 5.77822 4.26974 5.10285 4.68629 4.68629ZM1.06667 14.9333C0.477564 14.9333 0 15.4109 0 16C0 16.5891 0.477564 17.0667 1.06667 17.0667H5.33333C5.92243 17.0667 6.4 16.5891 6.4 16C6.4 15.4109 5.92243 14.9333 5.33333 14.9333H1.06667ZM4.68629 27.3137C4.26974 26.8971 4.26974 26.2219 4.68629 25.8052L7.70327 22.7883C8.11983 22.3716 8.79522 22.3716 9.21178 22.7883C9.62833 23.2047 9.62833 23.8801 9.21178 24.2967L6.1948 27.3137C5.77822 27.7303 5.10285 27.7303 4.68629 27.3137ZM26.6667 14.9333C26.0777 14.9333 25.6 15.4109 25.6 16C25.6 16.5891 26.0777 17.0667 26.6667 17.0667H30.9333C31.5223 17.0667 32 16.5891 32 16C32 15.4109 31.5223 14.9333 30.9333 14.9333H26.6667ZM22.7883 9.21178C22.3716 8.79522 22.3716 8.11983 22.7883 7.70327L25.8052 4.68629C26.2219 4.26974 26.8971 4.26974 27.3137 4.68629C27.7303 5.10285 27.7303 5.77822 27.3137 6.1948L24.2967 9.21178C23.8801 9.62833 23.2047 9.62833 22.7883 9.21178ZM17.0667 26.6667C17.0667 26.0777 16.5891 25.6 16 25.6C15.4109 25.6 14.9333 26.0777 14.9333 26.6667V30.9333C14.9333 31.5223 15.4109 32 16 32C16.5891 32 17.0667 31.5223 17.0667 30.9333V26.6667ZM22.7883 22.7883C23.2047 22.3716 23.8801 22.3716 24.2967 22.7883L27.3137 25.8052C27.7303 26.2219 27.7303 26.8971 27.3137 27.3137C26.8971 27.7303 26.2219 27.7303 25.8052 27.3137L22.7883 24.2967C22.3716 23.8801 22.3716 23.2047 22.7883 22.7883ZM11.7333 16C11.7333 13.6436 13.6436 11.7333 16 11.7333C18.3564 11.7333 20.2667 13.6436 20.2667 16C20.2667 18.3564 18.3564 20.2667 16 20.2667C13.6436 20.2667 11.7333 18.3564 11.7333 16ZM16 9.6C12.4654 9.6 9.6 12.4654 9.6 16C9.6 19.5346 12.4654 22.4 16 22.4C19.5346 22.4 22.4 19.5346 22.4 16C22.4 12.4654 19.5346 9.6 16 9.6Z" fill="black"/>
</svg>
