<svg width="32" height="32" viewBox="0 0 32 32" fill="none" xmlns="http://www.w3.org/2000/svg">
<path id="Moon" fill-rule="evenodd" clip-rule="evenodd" d="M6.39854 0.914272C6.39854 0.409334 5.98928 0 5.48446 0C4.97962 0 4.57039 0.409334 4.57039 0.914272V2.28569H3.19927C2.69443 2.28569 2.2852 2.69501 2.2852 3.19996C2.2852 3.70489 2.69443 4.11423 3.19927 4.11423H4.57039V5.48564C4.57039 5.99057 4.97962 6.39991 5.48446 6.39991C5.98928 6.39991 6.39854 5.99057 6.39854 5.48564V4.11423H7.76965C8.27447 4.11423 8.68372 3.70489 8.68372 3.19996C8.68372 2.69501 8.27447 2.28569 7.76965 2.28569H6.39854V0.914272ZM13.2541 7.77131C13.2541 7.26636 12.8448 6.85704 12.34 6.85704C11.8352 6.85704 11.426 7.26636 11.426 7.77131V9.14272H10.0548C9.54999 9.14272 9.14076 9.55204 9.14076 10.057C9.14076 10.5619 9.54999 10.9713 10.0548 10.9713H11.426V12.3427C11.426 12.8476 11.8352 13.2569 12.34 13.2569C12.8448 13.2569 13.2541 12.8476 13.2541 12.3427V10.9713H14.6252C15.13 10.9713 15.5393 10.5619 15.5393 10.057C15.5393 9.55204 15.13 9.14272 14.6252 9.14272H13.2541V7.77131ZM4.11335 14.6283C4.11335 14.1234 3.70409 13.7141 3.19927 13.7141C2.69443 13.7141 2.2852 14.1234 2.2852 14.6283V15.9998H0.914076C0.409246 15.9998 0 16.4091 0 16.914C0 17.419 0.409246 17.8283 0.914076 17.8283H2.2852V19.1997C2.2852 19.7046 2.69443 20.114 3.19927 20.114C3.70409 20.114 4.11335 19.7046 4.11335 19.1997V17.8283H5.48446C5.98928 17.8283 6.39854 17.419 6.39854 16.914C6.39854 16.4091 5.98928 15.9998 5.48446 15.9998H4.11335V14.6283ZM19.2963 2.01566L18.6156 1.92365C18.1279 1.869 17.8403 2.43545 18.1201 2.83873C18.4418 3.30238 18.7382 3.78496 19.0072 4.28444C20.1526 6.41104 20.8026 8.84407 20.8026 11.4289C20.8026 18.9072 15.3622 25.1146 8.22415 26.3075C7.67225 26.3996 7.10672 26.4618 6.53588 26.4924C6.04582 26.5185 5.77539 27.0933 6.11798 27.4446C6.27406 27.6049 6.43366 27.7614 6.59664 27.9146L6.76154 28.067L7.35569 28.5813L7.78533 28.9212L8.06211 29.1271L8.48932 29.4263L8.89124 29.6887C9.16766 29.8627 9.45013 30.0281 9.73854 30.1845L10.3404 30.4937L10.9359 30.7669L11.6279 31.046L12.184 31.2421C12.4901 31.3431 12.8005 31.4348 13.1138 31.5161C13.3515 31.5778 13.5916 31.6341 13.8347 31.6846C14.1224 31.7442 14.413 31.7959 14.7062 31.8391L15.4306 31.9275L16.0406 31.9749C16.3309 31.9915 16.6233 32 16.9178 32C25.2475 32 32 25.2461 32 16.9146C32 16.3437 31.9682 15.7801 31.9065 15.2257L31.8224 14.592C31.7436 14.0817 31.6392 13.5799 31.5107 13.0888C31.3558 12.4961 31.1659 11.9175 30.9436 11.3572L30.6853 10.7458L30.5089 10.3666L30.3396 10.0265C29.9767 9.32043 29.5596 8.64666 29.0932 8.0096L28.7436 7.55084L28.2891 7.0041L27.9152 6.59106L27.6419 6.30741L27.2749 5.94844L26.7674 5.48989L26.0341 4.89577L25.476 4.49137L24.8085 4.0559L24.0736 3.63186L23.3257 3.25436L23.0663 3.13546L22.5203 2.90424L21.8874 2.66721L21.3109 2.4791L20.5685 2.27405L19.9634 2.13684L19.2963 2.01566ZM23.5448 11.8861C23.5448 9.54477 23.0809 7.31032 22.2405 5.27092C26.6506 7.29125 29.7148 11.7453 29.7148 16.9146C29.7148 23.9837 23.9854 29.7143 16.9178 29.7143C14.9371 29.7143 13.0621 29.265 11.3884 28.4618C14.721 27.4147 17.6207 25.3898 19.7514 22.7233C20.0632 23.1503 20.5674 23.4276 21.1364 23.4276C22.0829 23.4276 22.8503 22.66 22.8503 21.7133C22.8503 20.897 22.2798 20.214 21.5159 20.0412C21.6577 19.7749 21.7928 19.5045 21.9209 19.2302C22.3574 19.5006 22.872 19.6567 23.4232 19.6567C25.0007 19.6567 26.2797 18.3775 26.2797 16.7996C26.2797 15.2221 25.0014 13.9432 23.4244 13.9425C23.5039 13.2681 23.5448 12.5819 23.5448 11.8861Z" fill="black"/>
</svg>
